<svg xmlns="http://www.w3.org/2000/svg" width="48" height="48" id="book"><g transform="translate(0 -1004.362)"><circle cx="24" cy="1028.362" r="24" fill="#ffa40b" fill-rule="evenodd"></circle><path style="isolation:auto;mix-blend-mode:normal" fill="#25b39e" d="M-523.477 1154.629h3.691c1.385 0 2.5 1.115 2.5 2.5v19c0 1.385-1.115 2.5-2.5 2.5H-534.285v-24h7.63z" color="#000" overflow="visible" transform="translate(546.291 -138.267)"></path><path fill="none" stroke="#60c5b8" stroke-linecap="round" stroke-linejoin="round" d="M11.507 1018.362h.993m-.993 2h.993m-.993 2h.993m-.993 2h.993m-.993 2h.993m-.993 2h.993m-.993 2h.993m-.993 2h.993m-.993 2h.993m-.993 2h.993m-.993 2h.993"></path><path style="isolation:auto;mix-blend-mode:normal" fill="#f05542" d="M-513.286 1161.629h4v15h-4z" color="#000" overflow="visible" transform="translate(546.291 -138.267)"></path><path style="isolation:auto;mix-blend-mode:normal" fill="#e9eded" d="M-513.286 1176.629h4l-2 4zm0-15v-1.5c0-.831.67-1.5 1.5-1.5h1c.831 0 1.5.669 1.5 1.5v1.5z" color="#000" overflow="visible" transform="translate(546.291 -138.267)"></path><path fill="none" stroke="#34485c" d="M35.005 1038.362v-14"></path><path style="isolation:auto;mix-blend-mode:normal" fill="#34485c" d="m-511.786 1179.629.5 1 .5-1h-1zM-513.286 1161.629h4v1h-4z" color="#000" overflow="visible" transform="translate(546.291 -138.267)"></path><path fill="#576d7e" color="#000" overflow="visible" style="isolation:auto;mix-blend-mode:normal" d="M-530.282 1159.129h10v4.5h-10z" transform="translate(546.291 -138.267)"></path><path style="isolation:auto;mix-blend-mode:normal" fill="#f05542" d="M-523.282 1154.629h2v27l-1-1-1 1z" color="#000" overflow="visible" transform="translate(546.291 -138.267)"></path></g></svg>