<svg xmlns="http://www.w3.org/2000/svg" width="110" height="110" version="1.0" id="computer"><circle cx="55" cy="54.848" r="55" fill="#25B7D3"></circle><path fill="#3E3E3F" d="M87 73.575a2.908 2.908 0 0 1-2.909 2.909H25.909A2.908 2.908 0 0 1 23 73.575V32.848a2.908 2.908 0 0 1 2.909-2.909h58.182A2.908 2.908 0 0 1 87 32.848v40.727z"></path><path fill="#E2E4E5" d="M46.273 76.485h17.455v7.455H46.273z"></path><path fill="#F0F1F1" d="M69.545 85.394c0 .803-.651 1.455-1.455 1.455H41.909a1.455 1.455 0 0 1 0-2.91h26.182c.803 0 1.454.651 1.454 1.455z"></path><path fill="#FFF" d="M87 73.575v-8.727H23v8.727a2.91 2.91 0 0 0 2.909 2.909h58.182A2.908 2.908 0 0 0 87 73.575z"></path><path fill="#CFD3D4" d="M55 74.757a3.913 3.913 0 0 1-3.909-3.909c0-2.156 1.754-3.909 3.909-3.909s3.909 1.753 3.909 3.909A3.913 3.913 0 0 1 55 74.757zm0-5.818a1.91 1.91 0 0 0-1.909 1.909c0 1.052.856 1.909 1.909 1.909s1.909-.856 1.909-1.909A1.911 1.911 0 0 0 55 68.939z"></path><path fill="#5B5C5F" d="M23 32.848v32h19.724l34.909-34.909H25.909A2.91 2.91 0 0 0 23 32.848z"></path><circle cx="55" cy="38.848" r="16" fill="#FFF"></circle><path fill="#17B198" d="M64.9 40.154a1.32 1.32 0 0 0-1.218-.814h-3.409v-9.228c0-.728-.59-1.318-1.318-1.318h-7.909c-.728 0-1.318.59-1.318 1.318v9.228h-3.409a1.318 1.318 0 0 0-.932 2.251l8.656 7.925a1.318 1.318 0 0 0 1.864 0l8.708-7.925a1.32 1.32 0 0 0 .285-1.437z"></path></svg>