<svg xmlns="http://www.w3.org/2000/svg" enable-background="new 0 0 64 64" viewBox="0 0 64 64" id="global-education"><path fill="#6bc7db" d="M58.37,35.28c0,1.29-0.14,2.54-0.41,3.75c-0.83,3.76-2.86,7.06-5.69,9.48c-3.04,2.6-6.99,4.17-11.31,4.17
						c-0.81,0-1.61-0.06-2.4-0.17c-6.11-0.84-11.21-4.86-13.58-10.33c-0.92-2.12-1.43-4.45-1.43-6.91c0-9.06,6.92-16.5,15.77-17.32
						c0.54-0.05,1.08-0.08,1.63-0.08C50.58,17.88,58.37,25.67,58.37,35.28z"></path><path fill="#47a470" d="M58.37 35.28c-2.15-.04-.78-.57-1.09-.87-.3-.3-1.43-2.43-1.43-2.43s-2.42-4.75-2.6-4.95c-.08-.09-.37.07-.67.27-.49.32-.62.98-.28 1.46.59.83 1.51 2.14 2.23 3.21.29.44.54.83.73 1.13.91 1.52.51 2.44.51 2.44s0 .29-.61 1.2c-.61.91-2.23.41-2.87 0-.65-.4-1.58-1.42-2.02-1.92-.44-.5-.47-3.44-1.08-3.64-.61-.2-.71.2-1.44.61-.6.33-1.83.66-2.26.77-.1.03-.21.04-.32.03-.42-.03-1.51-.18-2.15-.9-.81-.91 1.11-1.42 1.01-1.72-.06-.16-.05-.72-.03-1.19.01-.44-.26-.84-.67-1l-1.05-.38c-.11-.04-.23-.06-.35-.06H41.2c-.23 0-.46-.08-.64-.22-.3-.24-.8-.63-1.19-.89-.53-.36.49-.94.75-1.08.03-.02.07-.03.11-.05.37-.14 2.68-1.09 2.68-2.2 0-.83-1.57-.52-2.56-.25-.09.03-.19.04-.28.04-.37 0-.72-.2-.9-.54-.23-.44-.12-.99.28-1.29l.27-.21c.39-.3.51-.83.29-1.27L39.35 18c-.01-.01-.01-.02-.02-.04.54-.05 1.08-.08 1.63-.08C50.58 17.88 58.37 25.67 58.37 35.28zM34.4 24.44L36 25.54c.22.15.3.45.19.7l-.63 1.35c-.12.25-.03.56.21.71l1.14.72c.21.14.31.4.23.64l-.53 1.72c-.11.36-.53.51-.84.3l-2.18-1.42c-.99-.65-2.31.06-2.31 1.25l0 0c0 .6.36 1.14.91 1.37l2.49 1.07c.1.04.2.06.31.04.71-.11 3.62-.57 4.08-.48.39.08 2.19.32 3.07.44.28.04.48.27.48.55v1.4c0 .26-.17.48-.42.54l-3.06.79c-.05.01-.11.04-.15.06-.36.22-1.95 1.21-2.04 1.57-.08.31-.95.67-1.37.83-.14.05-.29.05-.42-.01l-3.86-1.72c-.01 0-.02-.01-.03-.01l-2.41-1.25c-1.4-.73-2.35-2.09-2.55-3.66l0 0c-.12-.95.04-1.92.48-2.77l1.35-2.67c.01-.02.02-.04.03-.05l2.11-3.25 1-1.52c.13-.19.36-.29.58-.24l.7.15c.41.09.58.58.31.9l0 0c-.34.42.05 1.03.57.9l.51-.13C34.1 24.31 34.26 24.34 34.4 24.44zM46.31 38.38l2.42 1.1c.22.1.23.41.01.52l-.92.45c-.04.02-.08.05-.11.09l-.74 1.06c-.11.15-.04.36.13.43l.48.2c.11.04.18.15.18.27v.67c0 .1-.05.18-.13.24l-1.29.88c-.05.03-.1.05-.16.05h-1.14c-.16 0-.29-.13-.29-.29v-.98c0-.03-.01-.07-.02-.1l-.57-1.57c-.01-.03-.02-.06-.02-.1v-1.63c0-.22.24-.36.43-.25.49.29 1.25.76 1.39.96.13.2-.13.56-.33.78-.1.11-.09.27 0 .38l0 0c.15.16.41.11.48-.1l.54-1.55c.03-.1.01-.21-.06-.29l-.7-.76c-.17-.18-.04-.48.21-.48h.09C46.23 38.35 46.27 38.36 46.31 38.38zM57.96 39.03c-.83 3.76-2.86 7.06-5.69 9.48l-2 .5c-.04.01-.08.01-.12.01H48.6c-.21 0-.4-.14-.46-.35l-.35-1.18c-.03-.09-.03-.19 0-.29l.9-2.84c.01-.03.02-.07.02-.11l.15-1.64c.02-.25.22-.44.46-.44l1-.03c.47-.02.68.58.32.87-.21.16-.25.46-.09.68l.19.26c.16.21.13.51-.08.67l-.34.28c-.26.21-.23.62.06.79l1.27.76c.11.06.24.09.36.06.41-.1 1.33-.35 1.24-.66-.09-.3-.05-.98-.02-1.32.01-.13-.03-.26-.12-.36l-.28-.33c-.25-.28-.09-.72.27-.79l.64-.13c.31-.06.48-.39.35-.68l-.71-1.58c-.08-.18-.25-.29-.44-.29h-.58c-.18 0-.34-.1-.43-.26l-.25-.46c-.14-.26-.02-.59.27-.69l1.71-.6c.05-.02.1-.03.16-.03h3.01c.1 0 .19.03.28.08L57.96 39.03zM39.99 50.94l-.94 1.07-.49.51c-6.11-.84-11.21-4.86-13.58-10.33.09-.16.24-.28.43-.32l2.32-.53 1.65-.32c.37-.07.72.18.78.55l.32 2.19c.05.33.33.56.65.56h1.15c0 0 3.25-.1 4.1 0 .6.07 1.67.69 2.26 1.05.24.15.36.45.29.72l-.31 1.22c-.04.15-.13.29-.26.38-.19.13-.28.34-.28.54 0 .27.16.54.46.63l.34.1c.11.03.21.1.29.19l.81.9C40.21 50.31 40.22 50.68 39.99 50.94z"></path><path fill="#172764" d="M48.36,16.54c-2.12,7.15-5.54,11.95-10.32,14.34c-4.45,2.24-10.07,2.38-16.89,0.37l-1.43-8.83L40.89,10.3
					l0.41-0.23L48.36,16.54z"></path><path fill="#0a1a59" d="M38.04,30.88l-4.06-7.51l-0.95-1.57l7.86-11.51l0.41-0.23l7.06,6.48C46.24,23.69,42.81,28.5,38.04,30.88z"></path><polygon fill="#0a1a59" points="50.9 4.38 50.89 4.39 43.62 12.19 33.62 22.71 20.13 24.94 9.63 26.78 26.51 9.56"></polygon><polygon fill="#1c346a" points="44.14 12.67 33.98 23.38 20.24 25.65 20.13 24.94 33.62 22.71 43.62 12.19 43.62 12.2 43.62 12.2"></polygon><rect width="0" height=".71" x="43.88" y="12.08" fill="#121212" transform="rotate(-28.738 43.886 12.435)"></rect><polygon fill="#1a1c1b" points="43.62 12.2 43.62 12.19 50.89 4.39 50.9 4.38"></polygon><polygon fill="#0a184b" points="44.14 12.67 33.98 23.38 33.62 22.71 43.62 12.19 43.62 12.2 43.62 12.2"></polygon><polygon fill="#fe9d30" points="44.58 16.64 43.94 16.69 41.2 11.64 29.37 14.15 28.96 13.61 41.5 10.95"></polygon><path fill="#e4e4e6" d="M29.86,13.36c0.2,0.36-0.09,0.9-0.65,1.2c-0.56,0.3-1.16,0.25-1.36-0.11c-0.2-0.36,0.09-0.9,0.65-1.2
					C29.06,12.94,29.67,12.99,29.86,13.36z"></path><path fill="#fe9d30" d="M46.47,19.05l-1.38,0.75c-0.11,0.06-0.25-0.02-0.23-0.15c0.04-0.36-0.03-0.72-0.2-1.04l-0.55-1.02
					c-0.16-0.29-0.05-0.65,0.24-0.81l0,0c0.29-0.16,0.65-0.05,0.81,0.24l0.55,1.02c0.17,0.32,0.44,0.57,0.76,0.74
					C46.58,18.83,46.58,18.99,46.47,19.05z"></path><path fill="#fe9d30" d="M45.44,15.97c0.35,0.65,0.11,1.47-0.54,1.82c-0.65,0.35-1.47,0.11-1.82-0.54
						c-0.35-0.65-0.11-1.47,0.54-1.82C44.27,15.07,45.09,15.32,45.44,15.97z"></path><path fill="#ef8626" d="M45.44,15.97c0.35,0.65,0.11,1.47-0.54,1.82c-0.08,0.04-0.16,0.08-0.25,0.11
						c0.48-0.41,0.62-1.1,0.31-1.67c-0.31-0.57-0.97-0.83-1.57-0.65c0.07-0.06,0.15-0.11,0.22-0.15
						C44.27,15.08,45.09,15.32,45.44,15.97z"></path><g><path fill="#f9b986" d="M64,47.11c0,0.74-0.4,1.46-1.1,1.85L47.54,57.3c-1.85,0.99-3.82,1.68-5.86,2.03
						c-1.09,0.2-2.22,0.3-3.33,0.3c-2.13,0-4.23-0.35-6.23-1.03L17.76,53.7V39.97l0.44-0.02c0.44-0.03,1.18-0.07,2.12-0.07
						c4.19,0,11.84,0.71,16.05,5.49c0.09,0.11,0.2,0.16,0.33,0.16h9.52c1.29,0,2.33,1.04,2.33,2.33c0,0.65-0.26,1.22-0.69,1.65
						c-0.41,0.41-1,0.68-1.65,0.68H32.43c-0.25,0-0.45,0.2-0.45,0.45c0,0.24,0.21,0.44,0.45,0.44h13.76c1.11,0,2.13-0.56,2.75-1.51
						c0.12-0.17,0.26-0.29,0.45-0.36l11.82-4.09c1.02-0.35,2.13,0.12,2.59,1.08C63.93,46.49,64,46.8,64,47.11z"></path><path fill="#8676b7" d="M18.38,38.28H0.78C0.35,38.28,0,38.63,0,39.06v16.67c0,0.43,0.35,0.78,0.78,0.78h17.6
										c0.43,0,0.78-0.35,0.78-0.78V39.06C19.16,38.63,18.81,38.28,18.38,38.28z"></path><path fill="#f0f3f1" d="M18.38,38.28h0.77c0.74,0,1.33,0.6,1.33,1.33v15.56c0,0.74-0.6,1.33-1.33,1.33h-0.77V38.28z"></path></g></svg>